# xmcd
#
# Track frame offsets: 
#        150
#        17865
#        38462
#        57425
#        71107
#        87370
#        102517
#        106830
#        135350
#        151200
#        180610
#
# Disc length: 2649 seconds
#
# Revision: 2
# Processed by: cddbd v1.5.1PL2 Copyright (c) Steve Scherf et al.
# Submitted via: ExactAudioCopy v0.95a5
#
DISCID=890a570b
DTITLE=Salon Music - my girl friday
DYEAR=1983
DGENRE=Rock
TTITLE0=MUSCLE DAUGHTER
TTITLE1=COUNTERS WALTS
TTITLE2=DIN OF LOVE
TTITLE3=A DAY AWAY
TTITLE4=SPENDING SILENT NIGHT
TTITLE5=HUNTING ON PARIS
TTITLE6=ME ON MY BOAT
TTITLE7=WATER SHELL
TTITLE8=YOU KNOW WHAT
TTITLE9=WANDERING
TTITLE10=MUSCLE DAUGHTER -Sg Version-
EXTD=
EXTT0=
EXTT1=
EXTT2=
EXTT3=
EXTT4=
EXTT5=
EXTT6=
EXTT7=
EXTT8=
EXTT9=
EXTT10=
PLAYORDER=
